<?xml version="1.0" encoding="UTF-8"?>
<svg width="40px" height="41px" viewBox="0 0 40 41" version="1.1" xmlns="http://www.w3.org/2000/svg" xmlns:xlink="http://www.w3.org/1999/xlink">
    <!-- Generator: Sketch 51.2 (57519) - http://www.bohemiancoding.com/sketch -->
    <title>post-facebook</title>
    <desc>Created with Sketch.</desc>
    <defs></defs>
    <g id="Page-1" stroke="none" stroke-width="1" fill="none" fill-rule="evenodd">
        <g id="PORTOFOLIO" transform="translate(-607.000000, -4214.000000)" fill="#F2F0F1">
            <g id="Footer" transform="translate(0.000000, 4107.000000)">
                <g id="Group-4" transform="translate(586.000000, 70.297030)">
                    <g id="social" transform="translate(21.000000, 37.623762)">
                        <g id="post-facebook">
                            <path d="M36,0 L4,0 C1.8,0 0,1.8 0,4 L0,36 C0,38.2 1.8,40 4,40 L36,40 C38.2,40 40,38.2 40,36 L40,4 C40,1.8 38.2,0 36,0 L36,0 Z M34,4 L34,10 L30,10 C28.8,10 28,10.8 28,12 L28,16 L34,16 L34,22 L28,22 L28,36 L22,36 L22,22 L18,22 L18,16 L22,16 L22,11 C22,7.2 25.2,4 29,4 L34,4 L34,4 Z" id="Shape"></path>
                        </g>
                    </g>
                </g>
            </g>
        </g>
    </g>
</svg>