<?xml version="1.0" encoding="UTF-8"?>
<svg width="40px" height="41px" viewBox="0 0 40 41" version="1.1" xmlns="http://www.w3.org/2000/svg" xmlns:xlink="http://www.w3.org/1999/xlink">
    <!-- Generator: Sketch 51.2 (57519) - http://www.bohemiancoding.com/sketch -->
    <title>post-instagram</title>
    <desc>Created with Sketch.</desc>
    <defs></defs>
    <g id="Page-1" stroke="none" stroke-width="1" fill="none" fill-rule="evenodd">
        <g id="PORTOFOLIO" transform="translate(-754.000000, -4214.000000)" fill="#F2F0F1">
            <g id="Footer" transform="translate(0.000000, 4107.000000)">
                <g id="Group-4" transform="translate(586.000000, 70.297030)">
                    <g id="social" transform="translate(21.000000, 37.623762)">
                        <g id="post-instagram" transform="translate(147.000000, 0.000000)">
                            <path d="M36,0 L4,0 C1.8,0 0,1.78217822 0,3.96039604 L0,35.6435644 C0,37.8217822 1.8,39.6039604 4,39.6039604 L36,39.6039604 C38.2,39.6039604 40,37.8217822 40,35.6435644 L40,3.96039604 C40,1.78217822 38.2,0 36,0 L36,0 Z M20,11.8811881 C24.4,11.8811881 28,15.4455446 28,19.8019802 C28,24.1584158 24.4,27.7227723 20,27.7227723 C15.6,27.7227723 12,24.1584158 12,19.8019802 C12,15.4455446 15.6,11.8811881 20,11.8811881 L20,11.8811881 Z M5,35.6435644 C4.4,35.6435644 4,35.2475248 4,34.6534653 L4,17.8217822 L8.2,17.8217822 C8,18.4158416 8,19.2079208 8,19.8019802 C8,26.3366337 13.4,31.6831683 20,31.6831683 C26.6,31.6831683 32,26.3366337 32,19.8019802 C32,19.2079208 32,18.4158416 31.8,17.8217822 L36,17.8217822 L36,34.6534653 C36,35.2475248 35.6,35.6435644 35,35.6435644 L5,35.6435644 L5,35.6435644 Z M36,8.91089109 C36,9.5049505 35.6,9.9009901 35,9.9009901 L31,9.9009901 C30.4,9.9009901 30,9.5049505 30,8.91089109 L30,4.95049505 C30,4.35643564 30.4,3.96039604 31,3.96039604 L35,3.96039604 C35.6,3.96039604 36,4.35643564 36,4.95049505 L36,8.91089109 L36,8.91089109 Z" id="Shape"></path>
                        </g>
                    </g>
                </g>
            </g>
        </g>
    </g>
</svg>