<?xml version="1.0" encoding="UTF-8"?>
<svg width="41px" height="39px" viewBox="0 0 41 39" version="1.1" xmlns="http://www.w3.org/2000/svg" xmlns:xlink="http://www.w3.org/1999/xlink">
    <!-- Generator: Sketch 51.2 (57519) - http://www.bohemiancoding.com/sketch -->
    <title>Shape</title>
    <desc>Created with Sketch.</desc>
    <defs></defs>
    <g id="Page-1" stroke="none" stroke-width="1" fill="none" fill-rule="evenodd">
        <g id="PORTOFOLIO" transform="translate(-680.000000, -4216.000000)" fill="#F2F0F1">
            <g id="Footer" transform="translate(0.000000, 4107.000000)">
                <g id="Group-4" transform="translate(586.000000, 70.297030)">
                    <g id="social" transform="translate(21.000000, 37.623762)">
                        <g id="post-linkedin" transform="translate(73.500000, 1.980198)">
                            <path d="M36,0 L4,0 C1.8,0 0,1.69306931 0,3.76237624 L0,33.8613861 C0,35.9306931 1.8,37.6237624 4,37.6237624 L36,37.6237624 C38.2,37.6237624 40,35.9306931 40,33.8613861 L40,3.76237624 C40,1.69306931 38.2,0 36,0 L36,0 Z M12,31.980198 L6,31.980198 L6,15.049505 L12,15.049505 L12,31.980198 L12,31.980198 Z M9,11.8514851 C7,11.8514851 5.4,10.3465347 5.4,8.46534653 C5.4,6.58415842 7,5.07920792 9,5.07920792 C11,5.07920792 12.6,6.58415842 12.6,8.46534653 C12.6,10.3465347 11,11.8514851 9,11.8514851 L9,11.8514851 Z M34,31.980198 L28,31.980198 L28,22.009901 C28,20.5049505 26.6,19.1881188 25,19.1881188 C23.4,19.1881188 22,20.5049505 22,22.009901 L22,31.980198 L16,31.980198 L16,15.049505 L22,15.049505 L22,17.3069307 C23,15.8019802 25.2,14.6732673 27,14.6732673 C30.8,14.6732673 34,17.6831683 34,21.2574257 L34,31.980198 L34,31.980198 Z" id="Shape"></path>
                        </g>
                    </g>
                </g>
            </g>
        </g>
    </g>
</svg>